<?xml version="1.0" standalone="no"?>
<!DOCTYPE svg PUBLIC "-//W3C//DTD SVG 20010904//EN"
 "http://www.w3.org/TR/2001/REC-SVG-20010904/DTD/svg10.dtd">
<svg version="1.0" xmlns="http://www.w3.org/2000/svg"
 width="138.000000pt" height="46.000000pt" viewBox="0 0 138.000000 46.000000"
 preserveAspectRatio="xMidYMid meet">

<g transform="translate(0.000000,46.000000) scale(0.100000,-0.100000)"
fill="#FF0000" stroke="none">
<path d="M360 403 c-45 -7 -144 -43 -177 -63 -27 -16 -33 -26 -33 -52 0 -55
27 -163 55 -222 l26 -56 58 0 c68 0 160 23 216 53 30 17 41 29 43 51 3 24 1
27 -17 21 -12 -3 -30 -3 -41 0 -18 6 -20 15 -20 96 0 72 3 89 15 89 10 0 15
-10 15 -30 0 -16 4 -30 9 -30 23 0 21 25 -8 85 l-30 65 -43 -1 c-24 -1 -54 -4
-68 -6z m-75 -103 c0 -8 -8 -16 -17 -18 -13 -2 -18 3 -18 18 0 15 5 20 18 18
9 -2 17 -10 17 -18z m129 -51 c32 -25 34 -64 4 -96 -25 -27 -45 -29 -76 -7
-16 11 -22 25 -22 54 0 29 6 43 22 54 29 21 40 20 72 -5z m-124 -62 c0 -43 -5
-78 -12 -85 -17 -17 -58 -15 -58 3 0 8 7 15 16 15 14 0 16 11 12 70 -4 67 -3
70 19 70 22 0 23 -4 23 -73z"/>
<path d="M354 216 c-8 -35 2 -58 23 -54 25 5 25 71 1 76 -12 2 -19 -5 -24 -22z"/>
<path d="M710 243 c0 -85 4 -97 37 -107 26 -8 38 7 18 24 -11 9 -15 33 -15 86
0 67 -2 74 -20 74 -18 0 -20 -7 -20 -77z"/>
<path d="M1062 271 c-12 -17 -18 -31 -12 -31 5 0 10 -20 10 -45 0 -40 3 -47
26 -55 26 -10 44 -6 44 9 0 5 -9 11 -20 14 -26 7 -28 62 -2 76 16 9 16 11 1
23 -9 7 -18 19 -21 26 -2 8 -12 2 -26 -17z"/>
<path d="M610 250 c-50 -50 0 -139 64 -114 24 9 19 24 -9 24 -31 0 -50 32 -35
60 6 11 19 20 30 20 25 0 34 16 14 24 -27 10 -43 7 -64 -14z"/>
<path d="M797 264 c-4 -4 -7 -27 -7 -51 0 -64 41 -97 94 -77 21 8 24 138 4
132 -8 -3 -14 -26 -16 -57 -3 -43 -6 -52 -20 -49 -12 2 -18 17 -22 52 -5 46
-17 65 -33 50z"/>
<path d="M958 259 c-28 -16 -23 -57 7 -65 32 -8 33 -34 1 -34 -34 0 -42 -18
-11 -26 16 -4 34 0 50 10 37 24 31 57 -12 70 -31 10 -29 26 3 26 16 0 24 5 22
13 -6 16 -38 20 -60 6z"/>
<path d="M1172 254 c-19 -13 -22 -24 -20 -57 4 -49 37 -75 81 -63 33 8 27 35
-7 29 -13 -3 -28 2 -35 11 -12 14 -9 16 28 16 37 0 41 2 41 24 0 24 -32 56
-55 56 -6 0 -21 -7 -33 -16z m56 -31 c2 -8 -6 -13 -22 -13 -25 0 -33 10 -19
24 10 10 36 3 41 -11z"/>
<path d="M1295 257 c-4 -8 -5 -39 -3 -68 2 -40 7 -54 18 -54 11 0 16 13 18 44
3 33 8 44 23 48 10 3 19 14 19 24 0 21 -8 23 -30 9 -9 -5 -19 -5 -27 2 -9 7
-14 6 -18 -5z"/>
<path d="M507 233 c-4 -3 -7 -21 -7 -40 0 -36 18 -44 40 -18 24 29 -8 84 -33
58z"/>
</g>
</svg>
